<?xml version="1.0" encoding="UTF-8" standalone="no"?><svg xmlns="http://www.w3.org/2000/svg" xmlns:xlink="http://www.w3.org/1999/xlink" fill="#000000" height="9.8" preserveAspectRatio="xMidYMid meet" version="1" viewBox="0.0 0.0 51.1 9.8" width="51.1" zoomAndPan="magnify"><defs><clipPath id="a"><path d="M 0 0 L 51.101562 0 L 51.101562 9.828125 L 0 9.828125 Z M 0 0"/></clipPath><clipPath id="b"><path d="M 0 0 L 51 0 L 51 9.828125 L 0 9.828125 Z M 0 0"/></clipPath></defs><g><g clip-path="url(#a)" id="change1_1"><path d="M 51.097656 0.734375 C 51.097656 0.328125 50.769531 0 50.363281 0 L 0.734375 0 C 0.328125 0 0 0.328125 0 0.734375 L 0 9.09375 C 0 9.5 0.328125 9.828125 0.734375 9.828125 L 50.363281 9.828125 C 50.769531 9.828125 51.097656 9.5 51.097656 9.09375 L 51.097656 0.734375" fill="#ff65c4" fill-rule="evenodd"/></g><g clip-path="url(#b)" fill-rule="evenodd"><g id="change2_1"><path d="M 50.625 0.734375 C 50.625 0.59375 50.507812 0.476562 50.363281 0.476562 L 0.734375 0.476562 C 0.589844 0.476562 0.472656 0.59375 0.472656 0.734375 L 0.472656 9.09375 C 0.472656 9.238281 0.589844 9.355469 0.734375 9.355469 L 50.363281 9.355469 C 50.507812 9.355469 50.625 9.238281 50.625 9.09375 Z M 50.101562 0.996094 L 50.101562 8.832031 L 0.996094 8.832031 L 0.996094 0.996094 L 50.101562 0.996094" fill="#ff65c4"/></g><g id="change1_2"><path d="M 50.363281 0.734375 L 0.734375 0.734375 L 0.734375 9.09375 L 50.363281 9.09375 L 50.363281 0.734375" fill="#ff65c4"/></g></g></g></svg>