<?xml version="1.0" encoding="UTF-8" standalone="no"?><svg xmlns="http://www.w3.org/2000/svg" xmlns:xlink="http://www.w3.org/1999/xlink" data-name="Слой 1" fill="#0060a4" height="544.1" preserveAspectRatio="xMidYMid meet" version="1" viewBox="-0.2 -0.2 500.3 544.1" width="500.3" zoomAndPan="magnify"><g id="change1_1"><path d="M499.83,542q-21.58-34.39-43.2-68.78L435,438.91l-21.71-34.32L369.8,336,329,271.75l52.53-77.14,13.83-20.28c4.63-6.75,9.22-13.52,13.88-20.25l27.94-40.37,11.3-16.32-149-1L296.34,102c-4.59,8.22-9.08,16.49-13.61,24.74l-3.39,6.2L276,139.17l-6.72,12.42L256,176.52l-6.77,12.86q-3.87-5.88-7.75-11.74l-7.92-11.85-8-11.81-8-11.78-8.11-11.73q-8.15-11.73-16.54-23.29a1.14,1.14,0,0,0-2,1.17Q197,121.25,203.43,134l6.41,12.74,6.5,12.7,6.55,12.66,6.61,12.62c4.45,8.39,8.89,16.79,13.4,25.15l6.51,12.06,7.75-12.16c5.06-7.95,10-15.94,15-23.92l14.86-24,7.37-12.05,3.68-6,3.65-6c3.69-6.11,7.39-12.21,11.05-18.33,2.92,0,92-.34,95.54-.41L393,143.37c-4.35,6.93-8.78,13.8-13.17,20.71l-13.22,20.68-52.94,82.69-2.76,4.3,2.76,4,45.9,67,46,66.93,23,33.45,23.08,33.41Q474.71,510,497.93,543.3a1.14,1.14,0,0,0,1.9-1.26Z"/></g><g id="change1_2"><path d="M296.57,409.21l-6.41-12.75-6.49-12.69-6.56-12.66-6.61-12.62c-4.45-8.4-8.88-16.8-13.4-25.15l-6.51-12.07-7.75,12.17c-5.06,7.94-10,15.94-15,23.92l-14.87,24-7.36,12.05-3.69,6-3.64,6q-5.53,9.17-11,18.33c-2.92,0-92,.35-95.55.42L107,399.85c4.36-6.93,8.79-13.81,13.18-20.71l13.22-20.69,52.94-82.69,2.75-4.3-2.75-4L140.44,200.6l-46-66.79-23-33.38L48.34,67.09Q25.3,33.73,2.07.49A1.14,1.14,0,0,0,.53.17,1.15,1.15,0,0,0,.17,1.74q21.6,34.34,43.2,68.64L65,104.67l21.71,34.24,43.48,68.46L171,271.47,118.5,348.61l-13.83,20.28c-4.63,6.74-9.21,13.52-13.88,20.25L62.85,429.51,51.56,445.83l149,1,3.15-5.66c4.59-8.22,9.09-16.49,13.61-24.74l3.39-6.2,3.36-6.21,6.72-12.42L244,366.7l6.77-12.85,7.75,11.72,7.92,11.85,8,11.82,8,11.78,8.11,11.73q8.14,11.72,16.54,23.28a1.14,1.14,0,0,0,1.95-1.16Q303,422,296.57,409.21Z"/></g></svg>