<?xml version="1.0" encoding="UTF-8" standalone="no"?><svg xmlns="http://www.w3.org/2000/svg" xmlns:xlink="http://www.w3.org/1999/xlink" fill="none" height="17.7" preserveAspectRatio="xMidYMid meet" style="fill: none" version="1" viewBox="1.5 2.9 20.7 17.7" width="20.7" zoomAndPan="magnify"><g id="change1_1"><path clip-rule="evenodd" d="M21.6472 3.23763C21.931 3.47854 22.0575 3.85714 21.9755 4.22025L18.4755 19.7202C18.3991 20.0583 18.1532 20.3327 17.8255 20.4455C17.4978 20.5583 17.135 20.4934 16.8668 20.2739L12.293 16.5318L10.3742 19.9856C10.1778 20.3392 9.7877 20.5396 9.38588 20.4934C8.98406 20.4473 8.64962 20.1636 8.5385 19.7747L6.70601 13.361L2.30391 12.4806C1.87081 12.3939 1.54584 12.0335 1.50443 11.5937C1.46303 11.154 1.71501 10.7392 2.12432 10.5732L20.6243 3.07325C20.9693 2.93339 21.3634 2.99673 21.6472 3.23763ZM5.96689 11.1736L7.69614 11.5194C8.06331 11.5928 8.35869 11.8652 8.46155 12.2253L9.79832 16.9039L11.1259 14.5143C11.2698 14.2553 11.5211 14.0735 11.8122 14.0178C12.1032 13.9621 12.4039 14.0384 12.6333 14.226L16.881 17.7014L19.6033 5.64526L5.96689 11.1736Z" fill="#fff200" fill-rule="evenodd"/></g><g id="change1_2"><path clip-rule="evenodd" d="M21.5328 4.84623C21.9713 4.57019 22.1263 4.00502 21.89 3.54396C21.6537 3.08289 21.1044 2.87861 20.6243 3.07326L2.12432 10.5733C1.71501 10.7392 1.46303 11.154 1.50443 11.5937C1.54584 12.0335 1.87081 12.394 2.30391 12.4806L7.30391 13.4806C7.55513 13.5308 7.81604 13.4827 8.03284 13.3462L21.5328 4.84623Z" fill="#fff200" fill-rule="evenodd"/></g><g id="change1_3"><path clip-rule="evenodd" d="M21.9755 4.22026C22.0776 3.76787 21.8553 3.30461 21.4385 3.10126C21.0217 2.8979 20.5198 3.00782 20.2261 3.36676L11.2261 14.3668C10.8763 14.7942 10.9393 15.4242 11.3668 15.774L16.8668 20.274C17.135 20.4934 17.4978 20.5584 17.8255 20.4456C18.1532 20.3328 18.3991 20.0583 18.4755 19.7203L21.9755 4.22026Z" fill="#fff200" fill-rule="evenodd"/></g></svg>