<?xml version="1.0" encoding="UTF-8" standalone="no"?><svg xmlns="http://www.w3.org/2000/svg" xmlns:xlink="http://www.w3.org/1999/xlink" fill="#000000" height="500" preserveAspectRatio="xMidYMid meet" version="1" viewBox="0.0 0.0 500.0 500.0" width="500" zoomAndPan="magnify"><g><g id="change1_1"><path d="M 500 250 C 500 388.070312 388.070312 500 250 500 C 111.929688 500 0 388.070312 0 250 C 0 111.929688 111.929688 0 250 0 C 388.070312 0 500 111.929688 500 250" fill="#ff65c4"/></g><g id="change2_1"><path d="M 88.855469 297.316406 L 180.046875 297.316406 C 180.046875 297.316406 176.988281 313.238281 189.738281 325.542969 C 202.484375 337.847656 247.355469 334.226562 247.355469 334.226562 L 247.355469 297.316406 L 201.761719 297.316406 C 201.761719 297.316406 238.671875 259.683594 240.117188 202.507812 C 241.566406 145.332031 200.3125 101.90625 200.3125 101.90625 C 200.3125 101.90625 242.289062 104.800781 247.355469 110.59375 L 247.355469 90.386719 C 247.355469 85.15625 251.59375 80.917969 256.824219 80.917969 L 268.285156 80.917969 C 273.511719 80.917969 277.753906 85.15625 277.753906 90.386719 L 277.753906 120 C 277.753906 120 351.574219 161.976562 355.191406 219.878906 C 358.8125 277.777344 281.371094 298.765625 281.371094 298.765625 L 281.371094 334.722656 C 281.371094 334.722656 308.148438 334.949219 323.347656 329.882812 C 338.546875 324.820312 356.359375 302.136719 378.914062 292.882812 C 394.792969 286.371094 432.632812 278.5 440.59375 281.394531 C 448.554688 284.289062 442.585938 297.34375 440.050781 298.882812 C 438.8125 299.632812 423.355469 306.996094 409.855469 320.429688 C 403.675781 326.578125 368.945312 390.679688 350.851562 392.128906 C 332.757812 393.574219 161.953125 393.574219 153.992188 392.128906 C 146.03125 390.679688 96.09375 352.320312 88.855469 324.09375 C 81.621094 295.867188 88.855469 297.316406 88.855469 297.316406" fill="#ffffff"/></g><g id="change2_2"><path d="M 189.738281 138.09375 L 111.292969 265.472656 L 193.800781 265.472656 C 193.800781 265.472656 214.0625 241.589844 211.167969 206.847656 C 208.273438 172.109375 196.53125 140.265625 189.738281 138.09375" fill="#ffffff"/></g></g></svg>